<?xml version="1.0" ?><svg viewBox="0 0 48 48" xmlns="http://www.w3.org/2000/svg"><g data-name="add image" id="add_image"><path d="M40.26,20.08a1,1,0,0,0-1,1v7.6L33.58,23a1.92,1.92,0,0,0-1.44-.59,2,2,0,0,0-1.42.63l-4.53,4.81-8.38-9.16a2,2,0,0,0-2.9-.07L5.26,28.35V8a1,1,0,0,1,1-1h34a1,1,0,0,0,0-2h-34a3,3,0,0,0-3,3V40a3,3,0,0,0,3,3h32a3,3,0,0,0,3-3V21.08A1,1,0,0,0,40.26,20.08ZM38.26,41h-32a1,1,0,0,1-1-1V31.13A1.53,1.53,0,0,0,5.42,31l10.91-11L28.75,33.63a1,1,0,0,0,1.41.07,1,1,0,0,0,.07-1.42l-2.69-2.93,4.63-4.92s7,7.05,7.09,7.07V40A1,1,0,0,1,38.26,41Z"/><path d="M43.76,12.5h-2.5V10a1,1,0,0,0-2,0v2.5h-2.5a1,1,0,0,0,0,2h2.5V17a1,1,0,0,0,2,0V14.5h2.5A1,1,0,0,0,43.76,12.5Z"/></g></svg>